# xmcd
#
# Track frame offsets:
#	150
#	12262
#	24036
#	36499
#	51223
#	70264
#	80343
#	92557
#	106306
#	119774
#	130327
#	143424
#	156219
#	166687
#	183175
#	197307
#	213476
#	226556
#	239062
#	252119
#	266088
#	278963
#	290369
#	307153
#	318457
#
# Disc length: 4418 seconds
#
# Revision: 1
# Processed by: cddbd v1.5.2PL0 Copyright (c) Steve Scherf et al.
# Submitted via: audiograbber 1.83.01
#
DISCID=5a114019
DTITLE=Varios - Nuestros 100 mejores Boleros
DYEAR=2000
DGENRE=Bolero
TTITLE0=Los Panchos - Flor de Azalea
TTITLE1=La Lupe - La Mentira
TTITLE2=Nat King Cole - Quizás,quizás,Quizas
TTITLE3=Lorenzo González - Te has escapado de un Libro
TTITLE4=Moncho - Amor no fumes en la Cama
TTITLE5=Olga Guillot - Soy lo Prohibido
TTITLE6=Lucho Gatica - Envidia
TTITLE7=Lola Beltrán - Tómame o Déjame
TTITLE8=Los Panchos - Un siglo de Ausencia
TTITLE9=Ana María Gonzáñez - Júrame
TTITLE10=Chavela Vargas - Luz de Luna
TTITLE11=Antonio Machin - Somos Novios
TTITLE12=Nat King Cole - Perfidia
TTITLE13=Olga Guillot - Delirio
TTITLE14=Los Tres Caballeros - Tu Condena
TTITLE15=Olga Guillot - La noche de Anoche
TTITLE16=Jose Alfredo Jimenéz - Corazón, Corazón
TTITLE17=Jorge Sepúlpeda - El mar y Tú
TTITLE18=Tito Gómez y la Orquestra Riverside - Vereda Tropical
TTITLE19=Lucho Gatica - Yo que no vivo sin Ti
TTITLE20=Los Panchos - La Hiedra
TTITLE21=Antonio Machin - Mira que eres Linda
TTITLE22=Lorenzo González - Cabaretera
TTITLE23=Nat King Cole - Vaya con Dios
TTITLE24=Los Panchos - Caminemos
EXTD=
EXTT0=
EXTT1=
EXTT2=
EXTT3=
EXTT4=
EXTT5=
EXTT6=
EXTT7=
EXTT8=
EXTT9=
EXTT10=
EXTT11=
EXTT12=
EXTT13=
EXTT14=
EXTT15=
EXTT16=
EXTT17=
EXTT18=
EXTT19=
EXTT20=
EXTT21=
EXTT22=
EXTT23=
EXTT24=
PLAYORDER=
